<?xml version="1.0" encoding="utf-8" ?>
<svg baseProfile="full" height="335" version="1.1" width="425" xmlns="http://www.w3.org/2000/svg" xmlns:ev="http://www.w3.org/2001/xml-events" xmlns:xlink="http://www.w3.org/1999/xlink"><defs /><path d="M 125,195 L 124,196 L 124,197 L 122,199 L 122,200 L 120,202 L 120,203 L 118,205 L 118,206 L 116,208 L 116,209 L 113,212 L 113,213 L 112,214 L 112,215 L 109,218 L 109,219 L 107,221 L 107,222 L 105,224 L 105,225 L 103,227 L 103,228 L 101,230 L 101,231 L 99,233 L 99,234 L 97,236 L 97,237 L 94,240 L 94,241 L 93,242 L 93,243 L 91,245 L 91,246 L 88,249 L 88,250 L 86,252 L 86,253 L 85,254 L 85,255 L 82,258 L 82,259 L 80,261 L 80,269 L 81,270 L 81,272 L 82,273 L 82,274 L 86,278 L 87,278 L 88,279 L 90,279 L 91,280 L 95,280 L 96,279 L 98,279 L 99,278 L 100,278 L 101,277 L 102,277 L 103,276 L 104,276 L 115,265 L 115,264 L 116,263 L 116,262 L 118,260 L 118,259 L 119,258 L 119,257 L 121,255 L 121,253 L 122,252 L 122,251 L 123,250 L 123,248 L 124,247 L 124,245 L 125,244 L 125,242 L 126,241 L 126,238 L 127,237 L 127,232 L 128,231 L 128,206 L 127,205 L 127,199 L 126,198 L 126,195 Z" fill="#0B0F16" /><path d="M 101,75 L 100,76 L 97,76 L 96,77 L 95,77 L 92,80 L 92,81 L 91,82 L 91,89 L 92,90 L 92,91 L 94,93 L 94,94 L 96,96 L 96,97 L 98,99 L 98,100 L 99,101 L 99,102 L 101,104 L 101,105 L 102,106 L 102,107 L 104,109 L 104,110 L 106,112 L 106,113 L 107,114 L 107,115 L 108,116 L 108,117 L 109,118 L 109,119 L 111,121 L 111,122 L 112,123 L 112,124 L 113,125 L 113,126 L 114,127 L 114,128 L 115,129 L 115,130 L 116,131 L 116,132 L 117,133 L 117,134 L 118,135 L 118,136 L 119,137 L 119,138 L 120,139 L 120,141 L 121,142 L 121,143 L 122,144 L 122,145 L 123,146 L 123,147 L 124,148 L 124,149 L 125,150 L 125,152 L 126,153 L 126,155 L 127,156 L 127,157 L 128,158 L 128,160 L 129,161 L 129,163 L 130,164 L 130,166 L 131,167 L 131,169 L 132,170 L 132,172 L 133,173 L 133,176 L 134,177 L 134,180 L 135,181 L 135,184 L 136,185 L 136,189 L 137,190 L 137,194 L 138,195 L 138,202 L 139,203 L 139,231 L 138,232 L 138,239 L 137,240 L 137,243 L 136,244 L 136,247 L 135,248 L 135,251 L 134,252 L 134,254 L 133,255 L 133,256 L 132,257 L 132,259 L 131,260 L 131,261 L 130,262 L 130,263 L 129,264 L 129,265 L 128,266 L 128,267 L 127,268 L 127,269 L 125,271 L 125,272 L 123,274 L 123,275 L 118,280 L 118,281 L 117,282 L 116,282 L 111,287 L 110,287 L 108,289 L 107,289 L 106,290 L 105,290 L 104,291 L 103,291 L 102,292 L 100,292 L 99,293 L 86,293 L 85,292 L 84,292 L 83,291 L 82,291 L 76,285 L 76,284 L 75,283 L 75,282 L 74,281 L 74,279 L 73,278 L 73,276 L 72,275 L 72,270 L 71,271 L 71,273 L 70,274 L 70,278 L 69,279 L 69,287 L 70,288 L 70,292 L 71,293 L 71,295 L 72,296 L 72,297 L 73,298 L 73,299 L 81,307 L 82,307 L 84,309 L 85,309 L 86,310 L 88,310 L 89,311 L 91,311 L 92,312 L 95,312 L 96,313 L 112,313 L 113,312 L 116,312 L 117,311 L 119,311 L 120,310 L 122,310 L 123,309 L 124,309 L 125,308 L 126,308 L 127,307 L 128,307 L 130,305 L 131,305 L 133,303 L 134,303 L 143,294 L 143,293 L 147,289 L 147,288 L 149,286 L 149,285 L 150,284 L 150,283 L 152,281 L 152,280 L 153,279 L 153,278 L 154,277 L 154,276 L 155,275 L 155,274 L 156,273 L 156,271 L 157,270 L 157,269 L 158,268 L 158,266 L 159,265 L 159,264 L 160,263 L 160,261 L 161,260 L 161,257 L 162,256 L 162,254 L 163,253 L 163,250 L 164,249 L 164,245 L 165,244 L 165,240 L 166,239 L 166,233 L 167,232 L 167,200 L 166,199 L 166,194 L 165,193 L 165,189 L 164,188 L 164,184 L 163,183 L 163,180 L 162,179 L 162,176 L 161,175 L 161,172 L 160,171 L 160,168 L 159,167 L 159,165 L 158,164 L 158,162 L 157,161 L 157,159 L 156,158 L 156,156 L 155,155 L 155,153 L 154,152 L 154,150 L 153,149 L 153,147 L 152,146 L 152,144 L 151,143 L 151,142 L 150,141 L 150,139 L 149,138 L 149,137 L 148,136 L 148,134 L 147,133 L 147,132 L 146,131 L 146,130 L 145,129 L 145,128 L 144,127 L 144,126 L 143,125 L 143,123 L 142,122 L 142,121 L 141,120 L 141,119 L 140,118 L 140,117 L 139,116 L 139,115 L 138,114 L 138,113 L 136,111 L 136,110 L 135,109 L 135,108 L 134,107 L 134,106 L 133,105 L 133,104 L 131,102 L 131,101 L 130,100 L 130,99 L 129,98 L 129,97 L 127,95 L 127,94 L 125,92 L 125,91 L 122,88 L 122,87 L 116,81 L 115,81 L 112,78 L 111,78 L 110,77 L 108,77 L 107,76 L 104,76 L 103,75 Z" fill="#0B0F16" /><path d="M 311,66 L 310,67 L 308,67 L 307,68 L 306,68 L 305,69 L 304,69 L 303,70 L 302,70 L 299,73 L 298,73 L 294,77 L 294,78 L 290,82 L 290,83 L 288,85 L 288,86 L 287,87 L 287,88 L 286,89 L 286,90 L 285,91 L 285,92 L 284,93 L 284,94 L 283,95 L 283,96 L 282,97 L 282,99 L 281,100 L 281,103 L 280,104 L 280,107 L 279,108 L 279,112 L 278,113 L 278,121 L 277,122 L 277,132 L 278,133 L 278,142 L 279,143 L 279,148 L 280,149 L 280,151 L 283,148 L 283,147 L 285,145 L 285,144 L 286,143 L 286,142 L 289,139 L 289,138 L 291,136 L 291,135 L 293,133 L 293,132 L 295,130 L 295,129 L 298,126 L 298,125 L 299,124 L 299,123 L 302,120 L 302,119 L 304,117 L 304,116 L 306,114 L 306,113 L 308,111 L 308,110 L 310,108 L 310,107 L 312,105 L 312,104 L 314,102 L 314,101 L 317,98 L 317,97 L 319,95 L 319,94 L 320,93 L 320,92 L 323,89 L 323,88 L 325,86 L 325,85 L 326,84 L 326,78 L 325,77 L 325,75 L 324,74 L 324,73 L 323,72 L 323,71 L 321,69 L 320,69 L 319,68 L 318,68 L 317,67 L 315,67 L 314,66 Z" fill="#0B0F16" /><path d="M 294,33 L 293,34 L 290,34 L 289,35 L 286,35 L 285,36 L 284,36 L 283,37 L 282,37 L 281,38 L 280,38 L 279,39 L 278,39 L 277,40 L 276,40 L 273,43 L 272,43 L 261,54 L 261,55 L 258,58 L 258,59 L 256,61 L 256,62 L 255,63 L 255,64 L 254,65 L 254,66 L 253,67 L 253,68 L 252,69 L 252,70 L 250,72 L 250,74 L 249,75 L 249,76 L 248,77 L 248,79 L 247,80 L 247,82 L 246,83 L 246,85 L 245,86 L 245,88 L 244,89 L 244,91 L 243,92 L 243,94 L 242,95 L 242,99 L 241,100 L 241,104 L 240,105 L 240,112 L 239,113 L 239,124 L 238,125 L 238,136 L 239,137 L 239,147 L 240,148 L 240,155 L 241,156 L 241,159 L 242,160 L 242,164 L 243,165 L 243,168 L 244,169 L 244,171 L 245,172 L 245,175 L 246,176 L 246,179 L 247,180 L 247,182 L 248,183 L 248,186 L 249,187 L 249,189 L 250,190 L 250,192 L 251,193 L 251,194 L 252,195 L 252,197 L 253,198 L 253,200 L 254,201 L 254,203 L 255,204 L 255,205 L 256,206 L 256,208 L 257,209 L 257,210 L 258,211 L 258,212 L 259,213 L 259,214 L 260,215 L 260,217 L 261,218 L 261,219 L 262,220 L 262,222 L 263,223 L 263,224 L 264,225 L 264,226 L 266,228 L 266,229 L 267,230 L 267,231 L 268,232 L 268,233 L 269,234 L 269,235 L 270,236 L 270,237 L 271,238 L 271,239 L 273,241 L 273,242 L 274,243 L 274,244 L 275,245 L 275,246 L 276,247 L 276,248 L 278,250 L 278,251 L 281,254 L 281,255 L 283,257 L 283,258 L 292,267 L 293,267 L 294,268 L 295,268 L 296,269 L 297,269 L 298,270 L 302,270 L 303,271 L 305,271 L 306,270 L 309,270 L 310,269 L 311,269 L 313,267 L 313,266 L 314,265 L 314,264 L 315,263 L 315,258 L 314,257 L 314,256 L 313,255 L 313,254 L 311,252 L 311,251 L 309,249 L 309,248 L 307,246 L 307,245 L 305,243 L 305,242 L 304,241 L 304,240 L 303,239 L 303,238 L 301,236 L 301,235 L 299,233 L 299,232 L 298,231 L 298,230 L 297,229 L 297,228 L 296,227 L 296,226 L 295,225 L 295,224 L 293,222 L 293,221 L 292,220 L 292,219 L 291,218 L 291,217 L 290,216 L 290,215 L 289,214 L 289,213 L 288,212 L 288,211 L 287,210 L 287,209 L 286,208 L 286,207 L 285,206 L 285,204 L 284,203 L 284,202 L 283,201 L 283,199 L 282,198 L 282,197 L 281,196 L 281,195 L 280,194 L 280,193 L 279,192 L 279,190 L 278,189 L 278,187 L 277,186 L 277,184 L 276,183 L 276,181 L 275,180 L 275,178 L 274,177 L 274,175 L 273,174 L 273,172 L 272,171 L 272,168 L 271,167 L 271,163 L 270,162 L 270,159 L 269,158 L 269,154 L 268,153 L 268,147 L 267,146 L 267,137 L 266,136 L 266,121 L 267,120 L 267,112 L 268,111 L 268,106 L 269,105 L 269,101 L 270,100 L 270,98 L 271,97 L 271,94 L 272,93 L 272,91 L 273,90 L 273,89 L 274,88 L 274,86 L 275,85 L 275,84 L 276,83 L 276,82 L 277,81 L 277,80 L 278,79 L 278,78 L 280,76 L 280,75 L 282,73 L 282,72 L 285,69 L 285,68 L 293,60 L 294,60 L 296,58 L 297,58 L 298,57 L 299,57 L 301,55 L 303,55 L 304,54 L 305,54 L 306,53 L 310,53 L 311,52 L 315,52 L 316,53 L 320,53 L 321,54 L 322,54 L 324,56 L 325,56 L 329,60 L 329,61 L 330,62 L 330,63 L 331,64 L 331,65 L 332,66 L 332,67 L 333,68 L 333,71 L 334,72 L 334,76 L 334,75 L 335,74 L 335,72 L 336,71 L 336,66 L 337,65 L 337,61 L 336,60 L 336,55 L 335,54 L 335,52 L 334,51 L 334,50 L 333,49 L 333,48 L 332,47 L 332,46 L 326,40 L 325,40 L 323,38 L 322,38 L 321,37 L 320,37 L 319,36 L 318,36 L 317,35 L 314,35 L 313,34 L 310,34 L 309,33 Z" fill="#0B0F16" /><path d="M 102,33 L 101,34 L 98,34 L 97,35 L 95,35 L 94,36 L 92,36 L 91,37 L 90,37 L 88,39 L 87,39 L 79,47 L 79,48 L 78,49 L 78,50 L 77,51 L 77,52 L 76,53 L 76,55 L 75,56 L 75,60 L 74,61 L 74,67 L 75,68 L 75,71 L 76,72 L 76,74 L 77,75 L 77,76 L 78,77 L 78,78 L 81,81 L 81,82 L 83,82 L 83,76 L 84,75 L 84,73 L 87,70 L 87,69 L 89,67 L 90,67 L 92,65 L 94,65 L 95,64 L 96,64 L 97,63 L 108,63 L 109,64 L 111,64 L 112,65 L 113,65 L 114,66 L 115,66 L 116,67 L 117,67 L 119,69 L 120,69 L 132,81 L 132,82 L 134,84 L 134,85 L 138,89 L 138,90 L 140,92 L 140,93 L 141,94 L 141,95 L 143,97 L 143,98 L 145,100 L 145,101 L 146,102 L 146,103 L 148,105 L 148,106 L 149,107 L 149,108 L 150,109 L 150,110 L 151,111 L 151,112 L 153,114 L 153,115 L 154,116 L 154,117 L 155,118 L 155,119 L 157,121 L 157,122 L 158,123 L 158,124 L 159,125 L 159,126 L 161,128 L 161,129 L 162,130 L 162,131 L 163,132 L 163,133 L 164,134 L 164,135 L 166,137 L 166,138 L 167,139 L 167,140 L 168,141 L 168,142 L 169,143 L 169,144 L 170,145 L 170,146 L 172,148 L 172,149 L 173,150 L 173,151 L 174,152 L 174,153 L 175,154 L 175,155 L 176,156 L 176,157 L 177,158 L 177,159 L 178,160 L 178,161 L 179,162 L 179,163 L 180,164 L 180,165 L 182,167 L 182,168 L 183,169 L 183,170 L 184,171 L 184,172 L 185,173 L 185,174 L 186,175 L 186,176 L 187,177 L 187,178 L 188,179 L 188,180 L 189,181 L 189,182 L 190,183 L 190,184 L 192,186 L 192,187 L 193,188 L 193,189 L 194,190 L 194,191 L 195,192 L 195,193 L 197,195 L 197,196 L 198,197 L 198,198 L 199,199 L 199,200 L 200,201 L 200,202 L 201,203 L 201,204 L 203,206 L 203,207 L 204,208 L 204,209 L 205,210 L 205,211 L 206,212 L 206,213 L 208,215 L 208,216 L 209,217 L 209,218 L 210,219 L 210,220 L 212,222 L 212,223 L 213,224 L 213,225 L 214,226 L 214,227 L 216,229 L 216,230 L 217,231 L 217,232 L 218,233 L 218,234 L 220,236 L 220,237 L 221,238 L 221,239 L 222,240 L 222,241 L 224,243 L 224,244 L 225,245 L 225,246 L 226,247 L 226,248 L 227,249 L 227,250 L 229,252 L 229,253 L 230,254 L 230,255 L 232,257 L 232,258 L 233,259 L 233,260 L 234,261 L 234,262 L 236,264 L 236,265 L 238,267 L 238,268 L 240,270 L 240,271 L 241,272 L 241,273 L 243,275 L 243,276 L 246,279 L 246,280 L 248,282 L 248,283 L 253,288 L 253,289 L 265,301 L 266,301 L 269,304 L 270,304 L 271,305 L 272,305 L 274,307 L 275,307 L 276,308 L 277,308 L 278,309 L 279,309 L 280,310 L 281,310 L 282,311 L 285,311 L 286,312 L 288,312 L 289,313 L 304,313 L 305,312 L 308,312 L 309,311 L 311,311 L 312,310 L 313,310 L 314,309 L 315,309 L 316,308 L 317,308 L 320,305 L 321,305 L 325,301 L 325,300 L 327,298 L 327,297 L 328,296 L 328,295 L 329,294 L 329,293 L 330,292 L 330,290 L 331,289 L 331,276 L 330,275 L 330,273 L 329,272 L 329,271 L 328,270 L 328,269 L 327,268 L 327,267 L 324,264 L 323,264 L 323,269 L 322,270 L 322,272 L 321,273 L 321,274 L 315,280 L 314,280 L 313,281 L 312,281 L 311,282 L 309,282 L 308,283 L 297,283 L 296,282 L 295,282 L 294,281 L 292,281 L 290,279 L 289,279 L 288,278 L 287,278 L 281,272 L 280,272 L 278,270 L 278,269 L 272,263 L 272,262 L 270,260 L 270,259 L 267,256 L 267,255 L 265,253 L 265,252 L 264,251 L 264,250 L 262,248 L 262,247 L 261,246 L 261,245 L 259,243 L 259,242 L 258,241 L 258,240 L 257,239 L 257,238 L 255,236 L 255,235 L 254,234 L 254,233 L 252,231 L 252,230 L 251,229 L 251,228 L 250,227 L 250,226 L 249,225 L 249,224 L 247,222 L 247,221 L 246,220 L 246,219 L 245,218 L 245,217 L 243,215 L 243,214 L 242,213 L 242,212 L 241,211 L 241,210 L 240,209 L 240,208 L 238,206 L 238,205 L 237,204 L 237,203 L 236,202 L 236,201 L 235,200 L 235,199 L 234,198 L 234,197 L 233,196 L 233,195 L 231,193 L 231,192 L 230,191 L 230,190 L 229,189 L 229,188 L 228,187 L 228,186 L 227,185 L 227,184 L 226,183 L 226,182 L 225,181 L 225,180 L 224,179 L 224,178 L 223,177 L 223,176 L 222,175 L 222,174 L 221,173 L 221,172 L 219,170 L 219,169 L 218,168 L 218,167 L 217,166 L 217,165 L 216,164 L 216,163 L 215,162 L 215,161 L 214,160 L 214,159 L 212,157 L 212,156 L 211,155 L 211,154 L 210,153 L 210,152 L 209,151 L 209,150 L 208,149 L 208,148 L 206,146 L 206,145 L 205,144 L 205,143 L 204,142 L 204,141 L 203,140 L 203,139 L 201,137 L 201,136 L 200,135 L 200,134 L 199,133 L 199,132 L 197,130 L 197,129 L 196,128 L 196,127 L 195,126 L 195,125 L 194,124 L 194,123 L 192,121 L 192,120 L 191,119 L 191,118 L 189,116 L 189,115 L 188,114 L 188,113 L 187,112 L 187,111 L 186,110 L 186,109 L 184,107 L 184,106 L 183,105 L 183,104 L 182,103 L 182,102 L 180,100 L 180,99 L 179,98 L 179,97 L 178,96 L 178,95 L 176,93 L 176,92 L 175,91 L 175,90 L 174,89 L 174,88 L 172,86 L 172,85 L 170,83 L 170,82 L 169,81 L 169,80 L 167,78 L 167,77 L 166,76 L 166,75 L 164,73 L 164,72 L 161,69 L 161,68 L 159,66 L 159,65 L 155,61 L 155,60 L 149,54 L 149,53 L 145,49 L 144,49 L 138,43 L 137,43 L 135,41 L 134,41 L 133,40 L 132,40 L 130,38 L 129,38 L 128,37 L 127,37 L 126,36 L 124,36 L 123,35 L 121,35 L 120,34 L 117,34 L 116,33 Z" fill="#0B0F16" /></svg>